HIERARCHY
ROOT hip
{
  OFFSET 0 0 0
  CHANNELS 6 Xposition Yposition Zposition Zrotation Yrotation Xrotation
  JOINT abdomen
  {
    OFFSET 0 20.6881 -0.73152
    CHANNELS 3 Zrotation Xrotation Yrotation
    JOINT chest
    {
      OFFSET 0 11.7043 -0.48768
      CHANNELS 3 Zrotation Xrotation Yrotation
      JOINT neck
      {
        OFFSET 0 22.1894 -2.19456
        CHANNELS 3 Zrotation Xrotation Yrotation
        JOINT head
        {
          OFFSET -0.24384 7.07133 1.2192
          CHANNELS 3 Zrotation Xrotation Yrotation
          JOINT leftEye
          {
            OFFSET 4.14528 8.04674 8.04672
            CHANNELS 3 Zrotation Xrotation Yrotation
            End Site
            {
              OFFSET 1 0 0
            }
          }
          JOINT rightEye
          {
            OFFSET -3.6576 8.04674 8.04672
            CHANNELS 3 Zrotation Xrotation Yrotation
            End Site
            {
              OFFSET 1 0 0
            }
          }
        }
      }
      JOINT rCollar
      {
        OFFSET -2.68224 19.2634 -4.8768
        CHANNELS 3 Zrotation Xrotation Yrotation
        JOINT rShldr
        {
          OFFSET -8.77824 -1.95073 1.46304
          CHANNELS 3 Zrotation Xrotation Yrotation
          JOINT rForeArm
          {
            OFFSET -28.1742 -1.7115 0.48768
            CHANNELS 3 Zrotation Xrotation Yrotation
            JOINT rHand
            {
              OFFSET -22.5879 0.773209 7.07136
              CHANNELS 3 Zrotation Xrotation Yrotation
              JOINT rThumb1
              {
                OFFSET -1.2192 -0.487915 3.41376
                CHANNELS 3 Zrotation Xrotation Yrotation
                JOINT rThumb2
                {
                  OFFSET -3.37035 -0.52449 3.41376
                  CHANNELS 3 Zrotation Xrotation Yrotation
                  End Site
                  {
                    OFFSET -1.78271 -1.18214 1.43049
                  }
                }
              }
              JOINT rIndex1
              {
                OFFSET -7.75947 0.938293 5.60832
                CHANNELS 3 Zrotation Xrotation Yrotation
                JOINT rIndex2
                {
                  OFFSET -2.54057 -0.884171 1.56538
                  CHANNELS 3 Zrotation Xrotation Yrotation
                  End Site
                  {
                    OFFSET -1.62519 -0.234802 1.16502
                  }
                }
              }
              JOINT rMid1
              {
                OFFSET -8.24714 1.18213 3.41376
                CHANNELS 3 Zrotation Xrotation Yrotation
                JOINT rMid2
                {
                  OFFSET -3.10165 -0.590103 1.0647
                  CHANNELS 3 Zrotation Xrotation Yrotation
                  End Site
                  {
                    OFFSET -2.48547 -0.328903 0.83742
                  }
                }
              }
              JOINT rRing1
              {
                OFFSET -8.82822 0.546677 1.51678
                CHANNELS 3 Zrotation Xrotation Yrotation
                JOINT rRing2
                {
                  OFFSET -2.60934 -0.819778 -0.0198488
                  CHANNELS 3 Zrotation Xrotation Yrotation
                  End Site
                  {
                    OFFSET -2.33842 -0.294052 0.168128
                  }
                }
              }
              JOINT rPinky1
              {
                OFFSET -8.27202 -0.0477905 -0.4584
                CHANNELS 3 Zrotation Xrotation Yrotation
                JOINT rPinky2
                {
                  OFFSET -1.82734 -0.647385 -0.700984
                  CHANNELS 3 Zrotation Xrotation Yrotation
                  End Site
                  {
                    OFFSET -1.69225 -0.51767 -0.607171
                  }
                }
              }
            }
          }
        }
      }
      JOINT lCollar
      {
        OFFSET 2.68224 19.2634 -4.8768
        CHANNELS 3 Zrotation Xrotation Yrotation
        JOINT lShldr
        {
          OFFSET 8.77824 -1.95073 1.46304
          CHANNELS 3 Zrotation Xrotation Yrotation
          JOINT lForeArm
          {
            OFFSET 28.1742 -1.7115 0.48768
            CHANNELS 3 Zrotation Xrotation Yrotation
            JOINT lHand
            {
              OFFSET 22.5879 0.773209 7.07136
              CHANNELS 3 Zrotation Xrotation Yrotation
              JOINT lThumb1
              {
                OFFSET 1.2192 -0.487915 3.41376
                CHANNELS 3 Zrotation Xrotation Yrotation
                JOINT lThumb2
                {
                  OFFSET 3.37035 -0.52449 3.41376
                  CHANNELS 3 Zrotation Xrotation Yrotation
                  End Site
                  {
                    OFFSET 1.78271 -1.18214 1.43049
                  }
                }
              }
              JOINT lIndex1
              {
                OFFSET 7.75947 0.938293 5.60832
                CHANNELS 3 Zrotation Xrotation Yrotation
                JOINT lIndex2
                {
                  OFFSET 2.54057 -0.884171 1.56538
                  CHANNELS 3 Zrotation Xrotation Yrotation
                  End Site
                  {
                    OFFSET 1.62519 -0.234802 1.16502
                  }
                }
              }
              JOINT lMid1
              {
                OFFSET 8.24714 1.18213 3.41376
                CHANNELS 3 Zrotation Xrotation Yrotation
                JOINT lMid2
                {
                  OFFSET 3.10165 -0.590103 1.0647
                  CHANNELS 3 Zrotation Xrotation Yrotation
                  End Site
                  {
                    OFFSET 2.48547 -0.328903 0.83742
                  }
                }
              }
              JOINT lRing1
              {
                OFFSET 8.82822 0.546677 1.51678
                CHANNELS 3 Zrotation Xrotation Yrotation
                JOINT lRing2
                {
                  OFFSET 2.60934 -0.819778 -0.0198488
                  CHANNELS 3 Zrotation Xrotation Yrotation
                  End Site
                  {
                    OFFSET 2.33842 -0.294052 0.168128
                  }
                }
              }
              JOINT lPinky1
              {
                OFFSET 8.27202 -0.0477905 -0.4584
                CHANNELS 3 Zrotation Xrotation Yrotation
                JOINT lPinky2
                {
                  OFFSET 1.82734 -0.647385 -0.700984
                  CHANNELS 3 Zrotation Xrotation Yrotation
                  End Site
                  {
                    OFFSET 1.69225 -0.51767 -0.607171
                  }
                }
              }
            }
          }
        }
      }
    }
  }
  JOINT rButtock
  {
    OFFSET -8.77824 4.35084 1.2192
    CHANNELS 3 Zrotation Xrotation Yrotation
    JOINT rThigh
    {
      OFFSET 0 -1.70687 -2.19456
      CHANNELS 3 Zrotation Xrotation Yrotation
      JOINT rShin
      {
        OFFSET 0 -36.8199 0.73152
        CHANNELS 3 Zrotation Xrotation Yrotation
        JOINT rFoot
        {
          OFFSET 0.73152 -45.1104 -5.12064
          CHANNELS 3 Zrotation Xrotation Yrotation
          End Site
          {
            OFFSET -1.1221 -3.69964 12.103
          }
        }
      }
    }
  }
  JOINT lButtock
  {
    OFFSET 8.77824 4.35084 1.2192
    CHANNELS 3 Zrotation Xrotation Yrotation
    JOINT lThigh
    {
      OFFSET 0 -1.70687 -2.19456
      CHANNELS 3 Zrotation Xrotation Yrotation
      JOINT lShin
      {
        OFFSET 0 -36.8199 0.73152
        CHANNELS 3 Zrotation Xrotation Yrotation
        JOINT lFoot
        {
          OFFSET -0.73152 -45.1104 -5.12064
          CHANNELS 3 Zrotation Xrotation Yrotation
          End Site
          {
            OFFSET 1.1221 -3.69964 12.103
          }
        }
      }
    }
  }
}
MOTION
Frames:	4
Frame Time:	0.03333
6.481300021867311 78.6569024441629 0.7489999896081042 0.6435999274253845 4.707200050354004 5.175299644470215 -6.378780364990234 8.386149406433105 6.7819294929504395 1.5215299129486084 -6.700929641723633 1.8844001293182373 -5.850829601287842 11.82960033416748 -5.943180084228516 6.968060493469238 -24.3539981842041 -9.85663890838623 -0.0 0.0 -0.0 -0.0 0.0 -0.0 -1.633289925290389e-14 1.138020070973883e-13 3.699879893561894e-14 -10.856001853942871 37.853302001953125 74.06329345703125 -28.115398406982422 -31.353002548217773 69.41609954833984 -0.04642239585518837 -6.132349967956543 -0.8651920557022095 -1.571089959517824e-11 -3.2871497190889443e-10 -2.733449855352177e-10 -2.540569837838902e-11 -5.659949731118274e-10 -4.751479765197075e-10 -1.5709898659732602e-11 -3.2871799726663653e-10 -2.733499815388285e-10 7.730909824371338 5.474879741668701 0.4173140823841095 -1.5709199566171783e-11 -3.2871699806591437e-10 -2.733419879330512e-10 2.9055399894714355 0.9651829600334167 0.10290199518203735 -1.5699500727217597e-11 -3.2871699806591437e-10 -2.733449855352177e-10 10.27859878540039 0.73180091381073 0.025912316516041756 -1.5714199039229548e-11 -3.2871699806591437e-10 -2.733369919294404e-10 2.221669912338257 -0.733487069606781 -0.208919957280159 -1.634039888261888e-14 1.1380699442738174e-13 3.6750296409553476e-14 -40.813697814941406 49.619606018066406 -37.450897216796875 28.402799606323242 -34.31739807128906 -74.2125015258789 0.36669304966926575 -16.95469856262207 2.4558298587799072 1.921559994455535e-10 -1.741969790636233e-09 -4.663409935989904e-11 3.3159999746068536e-10 -2.9854496652603757e-09 -7.497089060670703e-11 1.9215200264266485e-10 -1.741969790636233e-09 -4.663469957422173e-11 -7.730909824371338 5.474879741668701 -0.4173140823841095 1.9215698476848786e-10 -1.741969790636233e-09 -4.663209748900776e-11 -2.9055399894714355 0.9651829600334167 -0.10290199518203735 1.9214699276126623e-10 -1.741969790636233e-09 -4.66302968460397e-11 -10.27859878540039 0.73180091381073 -0.025912316516041756 1.9215799784699783e-10 -1.7419599096513139e-09 -4.663589653342015e-11 -2.221669912338257 -0.733487069606781 0.208919957280159 -2.0321699480147914e-16 0.0 -3.8825099822884138e-19 1.0915498733520508 -36.34949493408203 -2.668800115585327 -0.7179440259933472 53.003700256347656 1.1378198862075806 0.3148420453071594 -15.64739990234375 1.4272301197052002 2.0321699480147914e-16 0.0 3.8825099822884138e-19 -11.737698554992676 -34.14990234375 -9.667659759521484 0.5180080533027649 49.02379608154297 -1.0550600290298462 2.775710105895996 -15.305200576782227 6.566070079803467
6.406400020686605 78.58709791084536 0.8499999912269596 0.4691999852657318 4.660999774932861 5.127099990844727 -6.1598100662231445 8.294581413269043 6.877739429473877 1.4905200004577637 -6.708499908447266 1.915069818496704 -5.864200592041016 11.86929988861084 -5.954250335693359 6.980999946594238 -24.280099868774414 -9.880789756774902 -0.0 0.0 -0.0 -0.0 0.0 -0.0 -6.355300061710277e-15 5.3273500248782885e-14 1.0823798996840994e-13 -12.000699996948242 38.0343017578125 75.23109436035156 -28.17919921875 -31.816396713256836 70.15809631347656 -0.04372740164399147 -5.957440376281738 -0.8403239250183105 8.853070360137494e-11 2.983039926185427e-10 -4.3254599901842994e-10 1.5478099357757458e-10 5.188529605959502e-10 -7.492340081682869e-10 8.853029420663461e-11 2.9830199421709835e-10 -4.3255898862781805e-10 7.730909824371338 5.474879741668701 0.4173140823841095 8.853219546356428e-11 2.9830199421709835e-10 -4.3253997605852135e-10 2.9055399894714355 0.9651829600334167 0.10290199518203735 8.85380935233826e-11 2.983009950163762e-10 -4.3254297366068784e-10 10.27859878540039 0.73180091381073 0.025912316516041756 8.852219651744875e-11 2.9830302117339613e-10 -4.325330094090418e-10 2.221669912338257 -0.733487069606781 -0.208919957280159 -6.317660035116664e-15 5.3275600890492075e-14 1.0798999905024462e-13 -41.19989776611328 50.45119857788086 -36.128501892089844 28.428300857543945 -35.13300704956055 -75.56539916992188 0.3559809923171997 -16.728097915649414 2.4208600521087646 4.9653298833662873e-11 1.414629968721215e-09 4.694820088246843e-10 7.901489879058587e-11 2.5053397134655597e-09 8.140950136237279e-10 4.964649524819009e-11 1.4146599447428798e-09 4.694820088246843e-10 -7.730909824371338 5.474879741668701 -0.4173140823841095 4.965659827771418e-11 1.414629968721215e-09 4.694820088246843e-10 -2.9055399894714355 0.9651829600334167 -0.10290199518203735 4.964070127178033e-11 1.4146599447428798e-09 4.694850064268508e-10 -10.27859878540039 0.73180091381073 -0.025912316516041756 4.965700073356061e-11 1.4146599447428798e-09 4.694750144196291e-10 -2.221669912338257 -0.733487069606781 0.208919957280159 -2.0321699480147914e-16 0.0 -3.8825099822884138e-19 1.3846501111984253 -36.05769729614258 -2.634320020675659 -0.7078319787979126 52.75309753417969 1.126020073890686 0.3664639890193939 -16.05000114440918 1.5402699708938599 2.0321699480147914e-16 0.0 3.8825099822884138e-19 -11.483298301696777 -34.2433967590332 -9.633161544799805 0.5286819338798523 49.32500076293945 -1.0664399862289429 2.855520248413086 -15.377798080444336 6.767179489135742
6.326200019493594 78.5126966602164 0.9569999938665538 0.3243999779224396 4.622900009155273 5.111299991607666 -5.963719844818115 8.155818939208984 7.017499923706055 1.4152500629425049 -6.651430606842041 1.9551498889923096 -5.87939977645874 11.884699821472168 -5.98552942276001 7.063680171966553 -24.167495727539062 -9.92997932434082 -0.0 0.0 -0.0 -0.0 0.0 -0.0 -3.120220011185171e-14 -3.140779872507285e-14 1.208610034969526e-13 -12.901598930358887 38.23420333862305 76.27470397949219 -28.237096786499023 -32.28980255126953 70.91990661621094 -0.03746999800205231 -5.526740550994873 -0.7791609168052673 2.0550398882601684e-10 1.0122900295783666e-09 -4.834670441766775e-10 3.5643096807369545e-10 1.753319822661581e-09 -8.342579960185503e-10 2.055050019045268e-10 1.0122900295783666e-09 -4.834840305889543e-10 7.730909824371338 5.474879741668701 0.4173140823841095 2.0550598722746116e-10 1.0122900295783666e-09 -4.834639910633598e-10 2.9055399894714355 0.9651829600334167 0.10290199518203735 2.0550898482962765e-10 1.0122900295783666e-09 -4.834729838698593e-10 10.27859878540039 0.73180091381073 0.025912316516041756 2.0549499601951737e-10 1.0122900295783666e-09 -4.834659339536529e-10 2.221669912338257 -0.733487069606781 -0.208919957280159 -3.11653982243594e-14 -3.1407402313653535e-14 1.2063100355858697e-13 -41.688899993896484 51.246700286865234 -34.74549865722656 28.432498931884766 -35.886199951171875 -76.81990051269531 0.3053090274333954 -15.560100555419922 2.242449998855591 -2.921579922432471e-10 5.237029920834857e-09 1.0231299141238992e-09 -5.174120021322892e-10 9.134989653603043e-09 1.7663699392045373e-09 -2.921650144038779e-10 5.2370499048493e-09 1.0231299141238992e-09 -7.730909824371338 5.474879741668701 -0.4173140823841095 -2.9215499464108063e-10 5.237029920834857e-09 1.0231299141238992e-09 -2.9055399894714355 0.9651829600334167 -0.10290199518203735 -2.9216798425046875e-10 5.2370401348866835e-09 1.0231299141238992e-09 -10.27859878540039 0.73180091381073 -0.025912316516041756 -2.9215699304252496e-10 5.237060118901127e-09 1.0231100411317584e-09 -2.221669912338257 -0.733487069606781 0.208919957280159 -2.0321699480147914e-16 0.0 -3.8825099822884138e-19 1.6662001609802246 -35.82099914550781 -2.6028597354888916 -0.6996390223503113 52.5552978515625 1.1187598705291748 0.34891799092292786 -16.380300521850586 1.4792799949645996 2.0321699480147914e-16 0.0 3.8825099822884138e-19 -11.329800605773926 -34.31899642944336 -9.729390144348145 0.5392499566078186 49.625301361083984 -1.079209804534912 2.963170051574707 -15.476000785827637 7.035300254821777
6.244300021568765 78.44080208901286 1.0589999912087944 0.16740000247955322 4.4785003662109375 5.066800117492676 -5.799639701843262 8.020978927612305 7.193700313568115 1.3199799060821533 -6.586421012878418 2.003690004348755 -5.905149936676025 11.866800308227539 -6.0293192863464355 7.1906609535217285 -24.006603240966797 -9.993537902832031 -0.0 0.0 -0.0 -0.0 0.0 -0.0 -6.04417029121708e-14 -6.202019963135602e-14 1.1459899056185524e-13 -13.702301025390625 38.46830368041992 77.27759552001953 -28.2864990234375 -32.75250244140625 71.66899871826172 -0.03121810033917427 -5.036970615386963 -0.7097469568252563 3.0893598790271426e-10 1.1025700352718104e-09 -2.6646998496637764e-10 5.340010100773895e-10 1.9079000601607277e-09 -4.573570133725724e-10 3.0893901326045636e-10 1.1025700352718104e-09 -2.6648899753567434e-10 7.730909824371338 5.474879741668701 0.4173140823841095 3.089380140597342e-10 1.1025599322422863e-09 -2.6646998496637764e-10 2.9055399894714355 0.9651829600334167 0.10290199518203735 3.089399847056029e-10 1.1025599322422863e-09 -2.6648300233134137e-10 10.27859878540039 0.73180091381073 0.025912316516041756 3.089269950962148e-10 1.1025700352718104e-09 -2.6647997697359926e-10 2.221669912338257 -0.733487069606781 -0.208919957280159 -6.042340022424653e-14 -6.202059265464355e-14 1.1440100169263223e-13 -42.24809646606445 52.04680252075195 -33.29409408569336 28.417701721191406 -36.59609603881836 -78.0114974975586 0.24981696903705597 -14.089000701904297 2.021400213241577 -4.217499960379456e-10 5.4964197637730194e-09 8.863320077878711e-10 -7.403379576054192e-10 9.566739400668212e-09 1.527679982515906e-09 -4.217559912422786e-10 5.496439747787463e-09 8.863410005943706e-10 -7.730909824371338 5.474879741668701 -0.4173140823841095 -4.2174702619135473e-10 5.4964197637730194e-09 8.863349498788864e-10 -2.9055399894714355 0.9651829600334167 -0.10290199518203735 -4.217559912422786e-10 5.4964197637730194e-09 8.863300093864268e-10 -10.27859878540039 0.73180091381073 -0.025912316516041756 -4.2175096748309215e-10 5.496439747787463e-09 8.86319018178483e-10 -2.221669912338257 -0.733487069606781 0.208919957280159 -2.0321699480147914e-16 0.0 -3.8825099822884138e-19 1.9524000883102417 -35.64030456542969 -2.519659996032715 -0.6942540407180786 52.430503845214844 1.1153100728988647 0.3084089756011963 -16.625701904296875 1.3672199249267578 2.0321699480147914e-16 0.0 3.8825099822884138e-19 -11.218500137329102 -34.3689079284668 -9.857708930969238 0.5491549968719482 49.908302307128906 -1.0921701192855835 3.083630084991455 -15.574799537658691 7.335208892822266
